<svg width="101.13"
     height="23.04"
     viewBox="0 0 101.13 23.04"
     xmlns="http://www.w3.org/2000/svg">
    <g id="svgGroup"
       stroke-linecap="round"
       fill-rule="evenodd"
       font-size="9pt"
       stroke="#000"
       stroke-width="0.25mm"
       fill="#fff"
       style="stroke:#000;stroke-width:0.25mm;fill:#5075">
        <path d="M 4.38 21.63 L 0 22.65 Q 0.42 20.52 0.825 18.465 Q 1.23 16.41 1.62 14.4 Q 2.04 12.06 2.475 9.66 Q 2.91 7.26 3.285 4.98 A 86.966 86.966 0 0 0 3.619 2.783 A 68.023 68.023 0 0 0 3.87 0.75 Q 4.35 0.72 4.8 0.69 Q 5.25 0.66 5.67 0.63 Q 6.06 0.6 6.465 0.57 Q 6.87 0.54 7.26 0.51 L 8.7 0.42 Q 8.91 1.56 9.075 2.67 A 386.164 386.164 0 0 1 9.381 4.764 A 367.444 367.444 0 0 1 9.39 4.83 A 259.131 259.131 0 0 0 9.486 5.404 Q 9.529 5.657 9.576 5.933 A 455.45 455.45 0 0 0 9.675 6.51 Q 9.84 7.47 10.005 8.475 Q 10.17 9.48 10.335 10.35 A 78.515 78.515 0 0 0 10.415 10.764 Q 10.514 11.272 10.594 11.642 A 24.276 24.276 0 0 0 10.62 11.76 A 16570.204 16570.204 0 0 0 10.763 11 Q 10.955 9.984 11.095 9.239 A 5809.434 5809.434 0 0 0 11.115 9.135 A 184.37 184.37 0 0 1 11.481 7.247 A 168.953 168.953 0 0 1 11.505 7.125 A 407.402 407.402 0 0 1 11.662 6.345 Q 11.732 6 11.809 5.621 A 737.054 737.054 0 0 1 11.97 4.83 L 12.9 0.45 L 16.56 0 Q 16.05 2.25 15.6 4.38 A 258.272 258.272 0 0 0 14.858 8.016 A 235.321 235.321 0 0 0 14.76 8.52 Q 14.01 12.15 13.44 15.315 A 142.719 142.719 0 0 0 13.05 17.577 Q 12.758 19.369 12.57 20.85 L 7.68 21.99 L 7.23 17.37 A 34.24 34.24 0 0 0 7.177 16.812 Q 7.125 16.314 7.05 15.705 A 286.376 286.376 0 0 1 6.825 13.824 A 312.493 312.493 0 0 1 6.81 13.695 Q 6.69 12.66 6.57 11.805 Q 6.451 10.954 6.391 10.534 A 125.846 125.846 0 0 0 6.39 10.53 A 494.25 494.25 0 0 0 5.888 13.547 A 449.537 449.537 0 0 0 5.82 13.965 Q 5.55 15.63 5.22 17.19 A 84.899 84.899 0 0 0 4.864 19.085 A 93.394 93.394 0 0 0 4.815 19.365 Q 4.62 20.49 4.38 21.63 Z M 62.61 19.38 L 62.61 19.14 A 1.237 1.237 0 0 1 62.613 19.052 Q 62.616 19.008 62.623 18.97 A 0.492 0.492 0 0 1 62.64 18.9 A 79.001 79.001 0 0 1 62.69 18.48 Q 62.771 17.805 62.895 16.86 A 81.789 81.789 0 0 1 63.079 15.544 A 105.303 105.303 0 0 1 63.3 14.115 Q 63.54 12.63 63.795 11.16 Q 64.05 9.69 64.26 8.49 Q 64.71 6.09 64.98 4.62 Q 65.25 3.15 65.415 2.355 A 122.047 122.047 0 0 1 65.493 1.983 Q 65.603 1.463 65.67 1.17 L 70.62 0.69 A 1917.293 1917.293 0 0 0 70.241 2.471 A 1618.004 1618.004 0 0 0 69.885 4.155 A 518.538 518.538 0 0 0 69.551 5.749 A 441.169 441.169 0 0 0 69.24 7.26 L 67.86 13.89 Q 67.684 14.622 67.594 15.125 A 11.526 11.526 0 0 0 67.59 15.15 A 13.431 13.431 0 0 0 67.502 15.528 Q 67.421 15.894 67.335 16.365 Q 67.2 17.1 67.2 17.7 A 1.579 1.579 0 0 0 67.239 18.06 A 1.134 1.134 0 0 0 67.44 18.495 A 0.874 0.874 0 0 0 67.636 18.687 A 0.692 0.692 0 0 0 68.04 18.81 A 1.083 1.083 0 0 0 68.531 18.7 A 1.103 1.103 0 0 0 68.88 18.42 A 2.847 2.847 0 0 0 69.23 17.893 A 3.727 3.727 0 0 0 69.42 17.46 Q 69.63 16.89 69.75 16.305 Q 69.857 15.782 69.941 15.438 A 11.881 11.881 0 0 1 69.96 15.36 A 130.83 130.83 0 0 0 70.483 12.838 A 119.171 119.171 0 0 0 70.515 12.675 Q 70.77 11.37 71.055 9.9 A 452.256 452.256 0 0 0 71.319 8.528 Q 71.498 7.59 71.7 6.51 Q 71.94 5.19 72.195 3.825 Q 72.45 2.46 72.69 1.05 L 77.25 0.75 L 76.2 6.54 A 508.442 508.442 0 0 0 75.981 7.708 Q 75.865 8.325 75.739 9.008 A 1075.249 1075.249 0 0 0 75.735 9.03 Q 75.48 10.41 75.18 11.82 Q 74.88 13.23 74.625 14.49 A 102.805 102.805 0 0 1 74.44 15.384 Q 74.366 15.736 74.296 16.052 A 53.676 53.676 0 0 1 74.16 16.65 A 11.822 11.822 0 0 1 73.617 18.345 Q 73.253 19.231 72.767 19.919 A 6.236 6.236 0 0 1 72.3 20.505 Q 71.04 21.9 69.525 22.47 A 9.268 9.268 0 0 1 67.976 22.911 A 7.274 7.274 0 0 1 66.63 23.04 A 4.499 4.499 0 0 1 65.278 22.825 A 5.472 5.472 0 0 1 64.8 22.65 Q 63.87 22.26 63.24 21.45 A 2.908 2.908 0 0 1 62.699 20.262 A 4.164 4.164 0 0 1 62.61 19.38 Z M 97.41 21.03 L 87.72 22.53 L 91.65 1.2 L 101.13 0.39 Q 100.92 1.05 100.77 1.74 A 29.214 29.214 0 0 0 100.519 2.772 A 32.233 32.233 0 0 0 100.485 2.925 A 45.389 45.389 0 0 0 100.375 3.437 Q 100.311 3.75 100.26 4.02 A 10.226 10.226 0 0 1 100.044 4.034 Q 99.69 4.054 99.15 4.065 Q 98.43 4.08 97.68 4.095 A 88.587 88.587 0 0 1 97.147 4.104 Q 96.728 4.11 96.39 4.11 L 95.82 4.11 L 94.77 9.48 L 96.51 9.39 Q 96.84 9.36 97.185 9.36 L 97.86 9.36 L 98.46 9.36 A 3.935 3.935 0 0 0 98.613 9.357 Q 98.753 9.352 98.85 9.336 A 0.982 0.982 0 0 0 98.88 9.33 Q 98.82 9.75 98.775 10.155 Q 98.73 10.56 98.67 10.98 L 98.4 12.63 Q 98.299 12.65 98.158 12.657 A 3.173 3.173 0 0 1 98.01 12.66 L 97.44 12.66 Q 97.11 12.69 96.75 12.69 Q 96.39 12.69 96.06 12.72 A 10.418 10.418 0 0 1 95.361 12.749 A 11.593 11.593 0 0 1 95.25 12.75 A 13.411 13.411 0 0 0 94.702 12.762 A 16.413 16.413 0 0 0 94.35 12.78 L 93.33 18.3 L 97.71 17.61 L 97.41 21.03 Z M 48.57 22.5 L 50.16 14.43 Q 50.46 12.78 50.805 10.935 Q 51.15 9.09 51.48 7.275 A 216.461 216.461 0 0 0 51.791 5.524 A 171.75 171.75 0 0 0 52.065 3.9 Q 52.24 2.828 52.366 1.982 A 76.679 76.679 0 0 0 52.47 1.26 Q 53.76 1.02 55.08 0.81 Q 56.4 0.6 57.78 0.6 Q 59.39 0.6 60.51 1.081 A 4.218 4.218 0 0 1 61.29 1.515 Q 62.58 2.43 63.15 3.915 Q 63.72 5.4 63.72 7.17 A 12.592 12.592 0 0 1 63.526 9.328 A 15.41 15.41 0 0 1 63.27 10.515 A 18.966 18.966 0 0 1 62.021 13.941 A 20.787 20.787 0 0 1 61.995 13.995 Q 61.17 15.72 60.03 17.25 Q 58.26 19.62 55.725 21.135 Q 53.19 22.65 50.25 22.65 Q 49.83 22.65 49.41 22.605 Q 48.99 22.56 48.57 22.5 Z M 74.37 22.5 L 75.96 14.43 Q 76.26 12.78 76.605 10.935 Q 76.95 9.09 77.28 7.275 A 216.461 216.461 0 0 0 77.591 5.524 A 171.75 171.75 0 0 0 77.865 3.9 Q 78.04 2.828 78.166 1.982 A 76.679 76.679 0 0 0 78.27 1.26 Q 79.56 1.02 80.88 0.81 Q 82.2 0.6 83.58 0.6 Q 85.19 0.6 86.31 1.081 A 4.218 4.218 0 0 1 87.09 1.515 Q 88.38 2.43 88.95 3.915 Q 89.52 5.4 89.52 7.17 A 12.592 12.592 0 0 1 89.326 9.328 A 15.41 15.41 0 0 1 89.07 10.515 A 18.966 18.966 0 0 1 87.821 13.941 A 20.787 20.787 0 0 1 87.795 13.995 Q 86.97 15.72 85.83 17.25 Q 84.06 19.62 81.525 21.135 Q 78.99 22.65 76.05 22.65 Q 75.63 22.65 75.21 22.605 Q 74.79 22.56 74.37 22.5 Z M 23.61 1.11 L 28.86 0.42 L 27.3 7.2 A 165.478 165.478 0 0 0 26.876 9.034 A 201.014 201.014 0 0 0 26.445 10.995 A 175.855 175.855 0 0 0 25.835 13.957 A 157.322 157.322 0 0 0 25.65 14.91 A 92.228 92.228 0 0 0 25.364 16.483 Q 25.24 17.203 25.142 17.848 A 52.627 52.627 0 0 0 25.08 18.27 A 24.072 24.072 0 0 1 26.059 18.213 A 29.137 29.137 0 0 1 26.685 18.195 A 108.251 108.251 0 0 1 27.396 18.185 Q 27.829 18.18 28.2 18.18 A 18.871 18.871 0 0 0 28.27 19.164 A 22.21 22.21 0 0 0 28.32 19.635 Q 28.41 20.4 28.515 20.955 A 48.148 48.148 0 0 1 28.54 21.086 Q 28.62 21.518 28.62 21.57 L 28.395 21.57 A 0.835 0.835 0 0 1 28.272 21.561 A 1.072 1.072 0 0 1 28.17 21.54 L 27.69 21.54 A 30.576 30.576 0 0 0 26.456 21.566 A 41.25 41.25 0 0 0 25.095 21.645 Q 23.67 21.75 22.275 21.975 A 19.435 19.435 0 0 0 20.951 22.234 A 14.578 14.578 0 0 0 19.77 22.56 Q 20.1 20.19 20.475 17.79 A 196.316 196.316 0 0 1 21.154 13.716 A 177.343 177.343 0 0 1 21.255 13.155 Q 21.66 10.92 22.02 9.12 Q 22.41 7.17 22.8 5.16 Q 23.19 3.15 23.61 1.11 Z M 31.402 22.219 A 4.15 4.15 0 0 0 33.24 22.62 A 5.563 5.563 0 0 0 33.715 22.599 Q 34.57 22.526 35.47 22.191 A 9.588 9.588 0 0 0 36.975 21.465 A 11.814 11.814 0 0 0 38.999 19.946 A 16.183 16.183 0 0 0 40.68 18.12 Q 42.42 15.99 43.515 12.915 A 18.15 18.15 0 0 0 44.092 10.945 A 20.537 20.537 0 0 0 44.61 6.27 Q 44.61 4.74 44.22 3.315 A 5.874 5.874 0 0 0 44.053 2.799 A 4.752 4.752 0 0 0 42.855 0.975 A 2.956 2.956 0 0 0 42.286 0.558 Q 41.408 0.06 40.08 0.06 A 6.469 6.469 0 0 0 37.641 0.539 A 8.138 8.138 0 0 0 35.73 1.65 Q 33.66 3.24 32.07 5.76 A 19.875 19.875 0 0 0 31.811 6.179 A 21.881 21.881 0 0 0 30.33 9.15 Q 29.58 10.98 29.16 12.87 A 18.902 18.902 0 0 0 28.93 14.091 A 15.618 15.618 0 0 0 28.74 16.47 Q 28.74 18.305 29.184 19.589 A 4.804 4.804 0 0 0 30 21.09 A 4.183 4.183 0 0 0 31.402 22.219 Z M 17.55 1.5 L 22.23 0.75 Q 21.84 2.76 21.45 4.725 Q 21.06 6.69 20.67 8.64 Q 20.25 10.74 19.8 13.08 Q 19.35 15.42 18.93 17.685 Q 18.51 19.95 18.15 21.9 A 10.057 10.057 0 0 0 17.727 21.91 Q 17.319 21.927 16.8 21.975 Q 15.99 22.05 15.18 22.155 Q 14.37 22.26 13.815 22.35 A 21.24 21.24 0 0 0 13.684 22.372 Q 13.266 22.442 13.231 22.469 A 0.015 0.015 0 0 0 13.23 22.47 Q 13.74 20.7 14.235 18.45 Q 14.73 16.2 15.195 13.845 A 2022.569 2022.569 0 0 1 15.649 11.554 A 1704.132 1704.132 0 0 1 16.08 9.39 Q 16.47 7.47 16.83 5.49 Q 17.19 3.51 17.55 1.5 Z M 55.48 17.243 A 10.855 10.855 0 0 0 55.815 16.77 A 16.902 16.902 0 0 0 56.678 15.323 Q 57.154 14.432 57.6 13.38 A 29.635 29.635 0 0 0 58.339 11.383 A 23.355 23.355 0 0 0 58.77 9.915 A 17.654 17.654 0 0 0 58.991 8.947 Q 59.091 8.445 59.14 8.008 A 7.193 7.193 0 0 0 59.19 7.2 A 3.235 3.235 0 0 0 59.117 6.494 Q 59.006 5.995 58.723 5.629 A 1.973 1.973 0 0 0 58.575 5.46 A 1.865 1.865 0 0 0 57.873 5.018 Q 57.577 4.909 57.212 4.864 A 4.594 4.594 0 0 0 56.64 4.83 A 143.191 143.191 0 0 1 56.156 7.313 A 113.346 113.346 0 0 1 55.665 9.6 Q 55.17 11.79 54.705 14.01 Q 54.24 16.23 53.82 18.87 Q 54.685 18.301 55.48 17.243 Z M 81.28 17.243 A 10.855 10.855 0 0 0 81.615 16.77 A 16.902 16.902 0 0 0 82.478 15.323 Q 82.954 14.432 83.4 13.38 A 29.635 29.635 0 0 0 84.139 11.383 A 23.355 23.355 0 0 0 84.57 9.915 A 17.654 17.654 0 0 0 84.791 8.947 Q 84.891 8.445 84.94 8.008 A 7.193 7.193 0 0 0 84.99 7.2 A 3.235 3.235 0 0 0 84.917 6.494 Q 84.806 5.995 84.523 5.629 A 1.973 1.973 0 0 0 84.375 5.46 A 1.865 1.865 0 0 0 83.673 5.018 Q 83.377 4.909 83.012 4.864 A 4.594 4.594 0 0 0 82.44 4.83 A 143.191 143.191 0 0 1 81.956 7.313 A 113.346 113.346 0 0 1 81.465 9.6 Q 80.97 11.79 80.505 14.01 Q 80.04 16.23 79.62 18.87 Q 80.485 18.301 81.28 17.243 Z M 34.86 17.67 Q 36.21 17.67 37.245 16.77 Q 38.28 15.87 39 14.475 Q 39.72 13.08 40.08 11.55 A 14.972 14.972 0 0 0 40.326 10.269 Q 40.44 9.482 40.44 8.79 A 5.848 5.848 0 0 0 40.412 8.226 A 7.418 7.418 0 0 0 40.35 7.755 A 2.393 2.393 0 0 0 40.145 7.092 A 2.137 2.137 0 0 0 39.96 6.78 Q 39.66 6.36 39.03 6.36 A 3.557 3.557 0 0 0 36.75 7.185 A 4.636 4.636 0 0 0 36.54 7.365 A 7.798 7.798 0 0 0 35.184 8.995 A 9.644 9.644 0 0 0 34.68 9.9 Q 33.93 11.46 33.57 12.96 Q 33.21 14.46 33.21 15.69 A 1.983 1.983 0 0 0 33.341 16.382 Q 33.453 16.684 33.66 16.995 A 1.667 1.667 0 0 0 34.022 17.393 A 1.328 1.328 0 0 0 34.86 17.67 Z"
              vector-effect="non-scaling-stroke" />
    </g>
</svg>